<?xml version="1.0" standalone="no"?>
<!DOCTYPE svg PUBLIC "-//W3C//DTD SVG 20010904//EN"
 "http://www.w3.org/TR/2001/REC-SVG-20010904/DTD/svg10.dtd">
<svg version="1.0" xmlns="http://www.w3.org/2000/svg"
 width="502.000000pt" height="502.000000pt" viewBox="0 0 502.000000 502.000000"
 preserveAspectRatio="xMidYMid meet">
<metadata>
Created by potrace 1.15, written by Peter Selinger 2001-2017
</metadata>
<g transform="translate(0.000000,502.000000) scale(0.100000,-0.100000)"
fill="#000000" stroke="none">
<path d="M2651 4856 c48 -17 81 -50 66 -66 -9 -9 -8 -11 3 -8 28 6 55 -154 28
-166 -7 -3 -2 -3 11 0 15 4 21 2 17 -4 -4 -7 10 -12 36 -14 24 -2 -85 -3 -242
-3 -294 -1 -371 -8 -630 -56 -296 -55 -549 -149 -835 -308 -69 -39 -301 -192
-331 -218 -10 -10 -49 -40 -84 -68 -36 -27 -76 -59 -90 -71 -211 -186 -200
-175 -253 -274 l-29 -55 97 103 c151 160 348 324 530 443 138 90 224 136 470
250 168 77 495 166 755 206 171 25 536 23 730 -6 403 -59 766 -186 1105 -386
199 -118 432 -297 552 -425 38 -41 52 -37 18 5 -14 17 -61 80 -106 140 -45 61
-85 112 -88 115 -4 3 -17 19 -30 35 -50 66 -255 267 -331 325 -25 19 -47 37
-50 41 -13 15 -194 131 -277 177 -338 185 -645 278 -988 296 -82 5 -87 4 -54
-8z"/>
<path d="M2165 3974 c-216 -37 -379 -79 -545 -140 -226 -84 -568 -274 -600
-334 -17 -33 -49 -246 -60 -412 -29 -399 46 -796 215 -1144 263 -542 647 -940
1142 -1188 169 -85 147 -83 265 -22 136 70 164 86 272 158 76 50 207 148 226
168 3 3 38 34 78 69 106 93 291 310 366 429 15 23 31 40 36 37 11 -7 22 11 25
39 4 36 5 37 15 31 6 -4 9 -3 8 2 -4 17 14 53 24 47 6 -4 8 -2 5 4 -9 14 3 43
14 36 5 -3 6 3 2 12 -4 12 -3 15 5 10 8 -5 10 -2 6 8 -4 9 0 18 9 22 9 3 14
11 11 18 -3 7 2 19 11 26 8 7 15 18 15 25 0 13 29 74 40 85 3 3 6 12 8 20 2 8
10 22 17 30 8 8 16 27 18 41 3 15 10 35 15 45 9 17 26 65 61 175 11 35 20 74
47 204 24 116 54 393 54 510 0 114 -28 361 -54 475 -47 206 -88 335 -117 365
-17 17 -16 12 6 -42 37 -92 34 -98 -25 -62 -29 18 -57 28 -67 25 -10 -3 -31 1
-47 9 -32 17 -51 20 -23 4 9 -5 17 -17 17 -25 0 -10 5 -12 13 -8 7 5 6 0 -3
-11 -8 -10 -10 -16 -5 -14 6 3 18 -2 28 -13 13 -14 14 -18 3 -18 -8 0 -16 3
-18 8 -1 4 -40 25 -85 47 -54 26 -78 43 -70 48 8 6 6 7 -5 3 -21 -6 -78 12
-78 25 0 5 -9 9 -20 9 -12 0 -33 6 -48 14 -33 16 -184 67 -267 89 -68 19 -176
39 -318 62 -125 19 -505 19 -622 -1z m-505 -156 c-14 -6 -39 -18 -57 -25 -30
-14 -53 -43 -33 -43 5 0 7 -6 4 -13 -2 -7 1 -44 7 -82 6 -39 15 -97 20 -130 4
-33 13 -91 20 -130 7 -38 13 -86 13 -107 1 -20 4 -34 8 -32 4 2 9 0 13 -6 3
-5 -1 -10 -9 -10 -9 0 -16 -3 -16 -8 0 -4 -22 -18 -49 -31 -28 -13 -57 -31
-66 -41 -23 -25 -31 -227 -16 -403 10 -124 53 -376 67 -399 3 -5 0 -16 -8 -25
-9 -12 -9 -15 0 -9 13 8 13 9 16 -56 1 -25 -1 -45 -4 -43 -3 2 -6 -128 -7
-288 -2 -310 -4 -349 -16 -358 -4 -3 -10 -27 -12 -54 -6 -55 -29 -90 -44 -66
-5 8 -7 21 -3 29 4 10 1 13 -7 8 -7 -5 -18 0 -27 10 -61 80 -214 326 -214 344
0 5 -6 15 -13 22 -21 20 -101 203 -136 306 -79 239 -111 429 -118 697 -5 209
10 407 44 556 14 64 18 71 62 102 131 93 344 206 499 265 73 29 135 43 82 20z
m1189 -453 c155 -32 319 -85 438 -140 l92 -43 -4 -249 c-4 -324 -24 -440 -118
-689 -105 -279 -229 -473 -442 -693 -102 -105 -273 -247 -328 -272 -19 -9 -32
-6 -73 17 -212 118 -442 338 -589 563 -218 333 -315 661 -315 1070 0 222 -4
211 94 259 192 95 364 152 561 186 138 24 146 24 360 21 166 -3 221 -8 324
-30z"/>
<path d="M2310 2942 c0 -157 3 -191 16 -211 35 -49 134 -66 200 -35 62 29 64
38 64 246 l0 188 -140 0 -140 0 0 -188z"/>
<path d="M1960 2409 c0 -209 8 -234 80 -263 55 -22 88 -20 140 7 67 33 70 46
67 252 l-2 180 -142 3 -143 3 0 -182z"/>
<path d="M2309 2588 c0 -2 -3 -80 -6 -175 -6 -203 2 -229 71 -263 70 -34 144
-21 194 32 22 24 22 29 20 214 l-3 189 -137 3 c-76 1 -138 1 -139 0z"/>
<path d="M2650 2399 l0 -191 33 -33 c58 -58 149 -59 212 -3 l35 30 0 194 0
194 -140 0 -140 0 0 -191z"/>
<path d="M2300 1866 c0 -96 4 -186 9 -199 18 -46 72 -78 134 -78 57 -1 87 10
125 44 21 20 22 26 22 214 l0 193 -145 0 -145 0 0 -174z"/>
<path d="M4808 3205 c13 -128 6 -516 -12 -640 -44 -297 -178 -657 -337 -911
-47 -75 -158 -236 -168 -244 -3 -3 -24 -27 -46 -55 -62 -78 -117 -135 -127
-129 -5 3 -7 2 -6 -3 3 -10 -53 -75 -60 -68 -3 2 -25 -14 -50 -35 -25 -22 -49
-40 -53 -40 -5 0 -9 -5 -9 -12 0 -6 9 -3 20 7 14 13 19 14 15 4 -3 -8 -18 -23
-33 -34 -21 -15 -24 -15 -13 -2 18 23 2 21 -29 -3 -14 -11 -30 -20 -37 -20 -7
0 -16 -6 -20 -13 -4 -8 -24 -22 -43 -33 -19 -10 -37 -22 -40 -25 -3 -3 -36
-23 -75 -44 -38 -21 -72 -41 -75 -44 -5 -6 -121 -64 -200 -99 -118 -54 -164
-72 -181 -72 -11 0 -19 -4 -19 -8 0 -5 -37 -19 -82 -31 -46 -13 -101 -29 -123
-36 -44 -14 -148 -37 -265 -59 -109 -21 -303 -35 -475 -35 -83 0 -173 -6 -201
-12 -44 -11 -66 -10 -145 6 -383 73 -719 218 -1001 432 -125 94 -328 290 -431
416 -80 97 -112 130 -60 59 184 -248 414 -467 658 -625 102 -66 325 -176 451
-223 289 -107 490 -144 819 -151 206 -4 260 -1 380 16 204 30 305 53 454 105
459 161 803 406 1149 820 13 15 51 66 84 113 33 46 62 82 66 79 3 -3 -2 -14
-10 -23 -8 -10 -18 -23 -22 -30 -9 -17 24 -10 35 8 7 11 9 11 9 -3 0 -10 4
-18 9 -18 5 0 23 -13 40 -29 29 -27 31 -28 26 -8 -5 16 -4 18 3 8 5 -7 15 -10
21 -7 8 5 8 0 1 -18 -5 -14 -6 -26 -1 -26 10 0 112 197 141 275 12 33 26 67
30 75 4 9 11 31 14 50 4 19 11 46 16 60 9 29 32 130 54 245 9 44 23 153 31
242 14 146 14 181 0 369 -9 114 -18 211 -21 216 -3 4 -11 54 -19 110 -7 57
-20 128 -29 158 l-15 55 7 -60z"/>
<path d="M3489 1488 c-146 -210 -413 -465 -654 -624 -49 -32 -92 -61 -95 -64
-11 -11 -66 -46 -95 -59 -16 -7 -25 -15 -19 -18 10 -3 67 25 134 67 8 5 44 27
80 49 150 91 381 300 526 473 71 85 160 208 150 208 -3 0 -15 -15 -27 -32z"/>
<path d="M773 793 c-7 -2 5 -19 27 -39 24 -22 44 -33 51 -28 8 5 10 2 7 -8 -4
-8 1 -21 11 -29 78 -64 111 -89 120 -89 6 0 11 -4 11 -8 0 -9 107 -81 220
-149 105 -62 279 -144 390 -182 36 -13 74 -27 85 -31 11 -5 34 -11 50 -13 17
-2 24 -2 18 0 -7 3 -13 8 -13 13 0 5 -6 7 -14 4 -8 -3 -17 -1 -21 5 -3 6 1 11
10 11 9 0 13 5 9 11 -4 8 -9 8 -17 0 -16 -16 -30 -13 -23 4 4 10 -1 15 -16 15
-12 0 -18 3 -15 6 7 8 -36 44 -52 44 -6 0 -11 5 -11 10 0 6 -6 10 -14 10 -7 0
-25 9 -39 20 -14 11 -34 20 -45 20 -11 0 -22 5 -24 11 -2 5 -28 21 -58 33
-136 58 -227 98 -253 112 -15 9 -35 13 -43 10 -9 -3 -12 -1 -9 4 3 6 0 10 -9
10 -8 0 -16 6 -19 13 -3 9 -8 9 -21 -2 -9 -8 -19 -11 -23 -7 -3 3 -1 6 6 6 7
0 10 4 6 9 -3 5 3 12 12 14 10 2 4 4 -14 3 -17 0 -29 -5 -26 -9 3 -5 -5 -3
-18 3 -30 16 -39 25 -17 17 10 -3 20 -2 23 3 4 6 -5 10 -19 10 -20 0 -24 4
-19 17 5 13 2 15 -17 10 -26 -7 -79 31 -93 65 -4 13 -13 18 -23 14 -12 -5 -15
-2 -10 9 3 10 2 13 -5 10 -12 -8 -41 14 -34 25 7 11 -7 19 -22 13z"/>
</g>
</svg>
